<svg width="783" height="783" viewBox="0 0 783 783" fill="none" xmlns="http://www.w3.org/2000/svg">
<g clip-path="url(#clip0_450_16)">
<path d="M0 0H783V783H0V0Z" fill="#010301"/>
<path d="M288.364 483.753C291.731 481.2 297.237 475.449 300.39 472.318L323.272 449.286L369.28 402.955C377.222 394.961 392.584 380.758 399.453 371.153C400.38 369.856 397.404 365.233 396.436 364.466C380.885 346.056 364.825 328.005 349.109 309.74C347.613 308.001 341.551 300.872 339.772 300.248C334.996 298.572 323.509 297.323 318.439 296.506L275.993 289.598C264.517 287.801 252.891 285.717 241.379 284.177C239.861 283.974 237.3 283.989 236.146 285.012C233.28 287.551 231.131 293.08 228.887 296.027C217.275 311.277 199.95 317.498 181.551 316.16C168.009 315.163 155.435 308.772 146.647 298.42C116.593 263.257 145.393 212.676 190.993 216.633C205.44 217.961 218.742 225.056 227.89 236.316C230.249 239.173 232.033 242.131 233.664 245.447C235.177 248.523 237.87 258.565 240.253 260.069C242.248 261.329 326.668 274.937 335.586 275.743C337.333 275.901 338.48 275.893 339.914 274.835C341.697 272.049 340.252 243.675 340.793 238.484C340.908 237.38 340.722 233.256 340.517 231.977C338.725 229.793 331.185 227.82 328.011 226.177C310.235 217.007 299.771 197.997 301.532 178.074C302.825 165.483 309.117 153.937 318.997 146.026C330.005 137.122 342.736 132.958 356.826 134.379C401.68 138.903 421.084 192.837 383.645 221.432C381.497 223.09 379.207 224.554 376.801 225.809C374.39 227.037 363.921 230.53 363.924 233.034C363.949 251.68 363.552 271.668 364.208 290.12C364.361 294.43 398.261 330.238 403.355 336.578C408.187 342.593 416.028 350.977 421.745 356.304C422.932 357.331 426.92 357.986 428.596 358.058C434.401 358.306 440.512 358.214 446.342 358.211L479.122 358.188L507.628 358.192C511.796 358.198 524.405 358.976 527.091 356.729C528.489 354.46 528.005 334.583 528.007 330.109L527.937 288.465C511.537 282.037 499.794 275.009 492.396 257.934C487.184 246.13 486.929 232.727 491.689 220.734C496.988 207.727 507.328 197.421 520.352 192.163C533.913 186.555 549.176 186.722 562.612 192.627C574.67 197.791 585.599 208.17 590.551 220.439C595.445 232.563 595.421 246.792 590.187 258.802C585.182 270.288 574.82 280.329 563.117 284.829C560.212 285.946 553.302 287.295 551.94 290.188C550.893 292.414 551.011 345.033 551.485 352.419C551.584 353.967 551.759 355.39 552.421 356.811C553.355 357.709 554.799 358.697 556.13 358.769C573.91 359.737 591.809 359.895 609.614 360.491C612.79 360.597 615.524 359.959 617.536 357.422C628.082 344.126 641.216 336.967 658.748 336.488C673.047 336.068 686.924 341.363 697.309 351.202C706.99 360.465 712.621 373.176 712.976 386.57C713.482 415.76 689.005 437.012 660.608 437.112C646.345 437.294 632.618 431.678 622.573 421.55C615.281 414.238 610.299 404.519 609.154 394.201C608.749 390.547 608.991 386.951 608.66 383.24C590.456 382.43 572.055 382.687 553.805 382.303C550.135 382.226 541.251 381.617 538.293 384.011C533.399 389.258 529.187 395.94 525.058 401.874C517.662 412.376 510.343 422.932 503.101 433.541L487.971 455.564C484.486 460.592 481.11 465.422 477.811 470.616C473.623 477.21 476.398 482.689 478.503 489.467C479.135 491.02 480.591 496.547 481.964 497.403C485.274 499.465 491.879 499.121 495.841 500.038C532.377 508.489 551.13 552.244 525.939 582.393C516.79 593.45 503.553 600.331 489.247 601.466C443.067 605.558 413.087 554.122 442.559 517.694C447.14 512.032 453.569 508.979 457.998 504.081C456.876 499.786 453.398 487.119 449.699 484.469C448.831 483.848 446.664 483.58 445.555 483.572C432.529 483.476 419.88 483.351 406.802 483.531C397.109 483.664 385.201 482.974 375.643 484.093C374.452 484.233 372.217 485.294 371.592 486.398C370.664 488.036 370.05 490.892 370.027 492.795C369.883 504.754 370.025 516.893 370.024 528.843L369.942 604.707C369.915 613.319 370.402 634.597 368.469 642.034C365.289 669.16 340.273 690.097 314.06 693.721C305.621 694.902 302.04 690.185 311.292 686.356C319.412 682.595 325.941 679.792 332.386 673.325C348.969 656.683 347.047 635.809 347.105 614.304L347.08 524.252L347.097 498.944C347.121 487.361 346.019 477.579 354.948 468.588C365.235 458.23 378.289 460.125 391.829 460.131L429.201 460.092C436.102 460.098 443.29 460.506 450.161 459.925C452.188 459.753 454.9 459.446 456.62 458.315C459.751 456.258 506.277 387.69 508.171 383.018L508.101 382.387C506.212 381.156 487.843 381.556 484.691 381.556L451.392 381.581C444.979 381.605 438.533 381.49 432.124 381.507C426.115 381.523 423.599 381.811 419.214 386.013C409.731 395.1 400.453 404.415 391.179 413.711L340.631 464.644L318.561 486.801C315.375 490 308.97 496.071 306.581 499.543C307.329 503.113 308.729 506.991 309.188 510.457C313.042 539.573 280.388 555.915 257.084 540.965C242.245 531.445 237.858 511.993 247.346 497.287C252.247 489.814 260.095 484.543 268.874 483.024C276.593 481.578 281.272 483.177 288.364 483.753Z" fill="url(#paint0_linear_450_16)"/>
<path d="M347.105 614.304L347.711 613.899C348.738 617.843 347.467 640.955 346.781 646.261C346.519 648.283 344.352 655.82 343.608 658.371C343.456 658.889 345.25 660.108 345.665 660.299C348.546 661.623 354.727 665.403 357.514 666.018C362.237 663.458 366.444 647.628 367.812 642.169L368.469 642.034C365.289 669.16 340.273 690.097 314.06 693.721C305.621 694.902 302.04 690.185 311.292 686.356C319.412 682.595 325.941 679.792 332.386 673.325C348.969 656.683 347.047 635.809 347.105 614.304Z" fill="url(#paint1_linear_450_16)"/>
<path d="M314.06 693.721C305.621 694.902 302.04 690.185 311.292 686.356C307.032 691.023 309.926 691.919 314.06 693.721Z" fill="#0A210D"/>
<path d="M478.511 521.792C494.308 518.653 509.648 528.949 512.728 544.757C515.809 560.565 505.456 575.867 489.637 578.889C473.9 581.895 458.696 571.608 455.631 555.883C452.567 540.157 462.797 524.915 478.511 521.792Z" fill="#0A210D"/>
<path d="M535.874 209.977C546.139 207.926 556.715 211.55 563.564 219.466C570.413 227.382 572.479 238.369 568.973 248.232C565.467 258.096 556.93 265.313 546.621 267.131C530.932 269.896 515.938 259.523 512.994 243.866C510.05 228.209 520.252 213.099 535.874 209.977Z" fill="#0A210D"/>
<path d="M657.198 358.259C672.862 356.278 687.184 367.319 689.255 382.971C691.325 398.623 680.366 413.008 664.726 415.168C648.96 417.346 634.432 406.278 632.344 390.499C630.257 374.72 641.408 360.256 657.198 358.259Z" fill="#0A210D"/>
<path d="M182.963 237.937C198.598 235.755 213.05 246.637 215.274 262.265C217.499 277.894 206.658 292.376 191.035 294.644C175.351 296.921 160.8 286.028 158.566 270.338C156.333 254.648 167.266 240.126 182.963 237.937Z" fill="#010301"/>
<path d="M349.415 154.854C364.569 153.207 378.216 164.093 379.977 179.235C381.738 194.377 370.955 208.105 355.826 209.979C340.536 211.874 326.63 200.95 324.85 185.647C323.07 170.343 334.098 156.519 349.415 154.854Z" fill="#0A210D"/>
<path d="M273.627 500.291C281.631 499.08 289.091 504.616 290.251 512.627C291.41 520.639 285.826 528.063 277.806 529.17C269.861 530.267 262.52 524.745 261.371 516.807C260.222 508.869 265.697 501.492 273.627 500.291Z" fill="#010301"/>
<path d="M121.046 360.683C139.435 359.539 157.522 368.179 168.247 383.31C170.46 386.432 172.526 392.27 175.482 394.682C176.465 395.484 179.938 395.341 181.368 395.266C198.929 394.345 216.453 392.822 234.01 391.553C242.121 390.967 250.927 390.608 258.976 389.684C259.672 389.604 260.515 389.244 260.847 388.659C263.354 384.078 263.969 379.637 266.978 375.17C277.467 359.595 298.822 355.997 314.356 366.438C321.735 371.324 326.865 378.946 328.616 387.621C330.232 396.009 328.209 404.934 323.416 411.971C318.648 418.954 311.308 423.763 303.003 425.347C292.466 427.326 283.935 425.326 275.275 419.319C272.603 417.121 270.618 414.865 267.691 412.627C259.335 412.197 244.539 414.064 235.72 414.533C217.639 415.634 199.609 417.034 181.533 418.258C175.903 418.07 175.377 422.01 173.92 426.807C171.967 433.236 169.929 437.019 165.446 442.383C156.212 453.432 144.16 458.915 130.242 460.403C102.124 463.411 75.718 443.346 73.0529 414.921C70.5333 385.654 92.4351 362.887 121.046 360.683Z" fill="#87DB5B"/>
<path d="M123.555 382.475C139.092 381.629 152.408 393.461 153.396 408.989C154.385 424.518 142.676 437.942 127.157 439.073C111.435 440.219 97.7958 428.324 96.7946 412.592C95.7933 396.86 107.815 383.331 123.555 382.475Z" fill="#010301"/>
<path d="M292.82 379.259C300.692 377.534 308.478 382.495 310.24 390.358C312.003 398.222 307.078 406.032 299.223 407.831C291.315 409.642 283.442 404.678 281.668 396.762C279.894 388.845 284.895 380.996 292.82 379.259Z" fill="#0A210D"/>
</g>
<defs>
<linearGradient id="paint0_linear_450_16" x1="216.798" y1="475.985" x2="635.102" y2="238.845" gradientUnits="userSpaceOnUse">
<stop stop-color="#81D856"/>
<stop offset="1" stop-color="#CDF28D"/>
</linearGradient>
<linearGradient id="paint1_linear_450_16" x1="312.34" y1="694.731" x2="353.494" y2="661.468" gradientUnits="userSpaceOnUse">
<stop stop-color="#1E5622"/>
<stop offset="1" stop-color="#5CB948"/>
</linearGradient>
<clipPath id="clip0_450_16">
<rect width="783" height="783" rx="391.5" fill="white"/>
</clipPath>
</defs>
</svg>
